<svg width="40" height="40" viewBox="0 0 40 40" fill="none" xmlns="http://www.w3.org/2000/svg">
<rect width="40" height="40" rx="20" fill="#F8F8F8"/>
<path fill-rule="evenodd" clip-rule="evenodd" d="M13.3134 14.8473C13.2985 14.6822 13.3181 14.5159 13.3711 14.3589C13.424 14.2019 13.509 14.0576 13.6208 13.9353C13.7325 13.8129 13.8686 13.7152 14.0202 13.6483C14.1718 13.5815 14.3356 13.5469 14.5013 13.5469H28.964C29.1427 13.547 29.319 13.5871 29.48 13.6645C29.641 13.7418 29.7826 13.8543 29.8944 13.9937C30.0061 14.1331 30.0851 14.2957 30.1256 14.4697C30.166 14.6437 30.1669 14.8246 30.1281 14.9989L28.9061 20.5072C28.6959 21.4538 28.1691 22.3004 27.4127 22.9071C26.6563 23.5139 25.7156 23.8444 24.7459 23.8443H18.019C16.9553 23.8443 15.9301 23.4465 15.1448 22.7291C14.3595 22.0116 13.871 21.0263 13.7753 19.967L13.3134 14.8473ZM15.0603 15.2512L15.4728 19.8136C15.5303 20.4495 15.8236 21.0409 16.2951 21.4714C16.7667 21.9019 17.3822 22.1404 18.0207 22.14H24.7476C25.3293 22.1398 25.8935 21.9413 26.3471 21.5772C26.8008 21.2132 27.1167 20.7053 27.2427 20.1374L28.3283 15.2512H15.0603Z" fill="#666666"/>
<path fill-rule="evenodd" clip-rule="evenodd" d="M9.78906 10.6881C9.78906 10.4621 9.87884 10.2453 10.0387 10.0855C10.1985 9.92572 10.4152 9.83594 10.6412 9.83594H13.6306C13.839 9.83615 14.0401 9.91275 14.1959 10.0513C14.3517 10.1898 14.4513 10.3805 14.4759 10.5875L15.161 16.3839C15.1875 16.6085 15.1236 16.8345 14.9834 17.012C14.8433 17.1896 14.6383 17.3042 14.4137 17.3306C14.189 17.357 13.9631 17.2932 13.7855 17.153C13.608 17.0129 13.4934 16.8079 13.4669 16.5833L12.8721 11.5385H10.6412C10.4152 11.5385 10.1985 11.4488 10.0387 11.2889C9.87884 11.1291 9.78906 10.9141 9.78906 10.6881ZM17.4584 28.2986C17.6844 28.2986 17.9012 28.2089 18.061 28.049C18.2208 27.8892 18.3106 27.6725 18.3106 27.4465C18.3106 27.2205 18.2208 27.0037 18.061 26.8439C17.9012 26.6841 17.6844 26.5943 17.4584 26.5943C17.2324 26.5943 17.0157 26.6841 16.8559 26.8439C16.696 27.0037 16.6063 27.2205 16.6063 27.4465C16.6063 27.6725 16.696 27.8892 16.8559 28.049C17.0157 28.2089 17.2324 28.2986 17.4584 28.2986ZM17.4584 30.0029C17.7941 30.0029 18.1266 29.9368 18.4367 29.8083C18.7469 29.6799 19.0287 29.4916 19.2661 29.2542C19.5035 29.0168 19.6918 28.735 19.8203 28.4248C19.9487 28.1146 20.0149 27.7822 20.0149 27.4465C20.0149 27.1108 19.9487 26.7783 19.8203 26.4682C19.6918 26.158 19.5035 25.8762 19.2661 25.6388C19.0287 25.4014 18.7469 25.2131 18.4367 25.0846C18.1266 24.9562 17.7941 24.89 17.4584 24.89C16.7804 24.89 16.1302 25.1594 15.6507 25.6388C15.1713 26.1182 14.902 26.7685 14.902 27.4465C14.902 28.1245 15.1713 28.7747 15.6507 29.2542C16.1302 29.7336 16.7804 30.0029 17.4584 30.0029ZM25.2334 28.2986C25.4594 28.2986 25.6762 28.2089 25.836 28.049C25.9958 27.8892 26.0856 27.6725 26.0856 27.4465C26.0856 27.2205 25.9958 27.0037 25.836 26.8439C25.6762 26.6841 25.4594 26.5943 25.2334 26.5943C25.0074 26.5943 24.7907 26.6841 24.6309 26.8439C24.4711 27.0037 24.3813 27.2205 24.3813 27.4465C24.3813 27.6725 24.4711 27.8892 24.6309 28.049C24.7907 28.2089 25.0074 28.2986 25.2334 28.2986ZM25.2334 30.0029C25.5692 30.0029 25.9016 29.9368 26.2118 29.8083C26.5219 29.6799 26.8037 29.4916 27.0411 29.2542C27.2785 29.0168 27.4668 28.735 27.5953 28.4248C27.7238 28.1146 27.7899 27.7822 27.7899 27.4465C27.7899 27.1108 27.7238 26.7783 27.5953 26.4682C27.4668 26.158 27.2785 25.8762 27.0411 25.6388C26.8037 25.4014 26.5219 25.2131 26.2118 25.0846C25.9016 24.9562 25.5692 24.89 25.2334 24.89C24.5554 24.89 23.9052 25.1594 23.4258 25.6388C22.9463 26.1182 22.677 26.7685 22.677 27.4465C22.677 28.1245 22.9463 28.7747 23.4258 29.2542C23.9052 29.7336 24.5554 30.0029 25.2334 30.0029Z" fill="#666666"/>
</svg>
