<svg width="16" height="16" viewBox="0 0 16 16" fill="none" xmlns="http://www.w3.org/2000/svg">
<path fill-rule="evenodd" clip-rule="evenodd" d="M3.54229 4.56223C3.53235 4.45222 3.54543 4.34134 3.58071 4.23666C3.61599 4.13198 3.67269 4.03579 3.74719 3.95423C3.82169 3.87268 3.91237 3.80753 4.01344 3.76295C4.11451 3.71837 4.22376 3.69534 4.33422 3.69531H13.976C14.0951 3.69536 14.2127 3.72215 14.32 3.77371C14.4274 3.82527 14.5218 3.90027 14.5962 3.99319C14.6707 4.0861 14.7234 4.19456 14.7504 4.31055C14.7773 4.42654 14.7779 4.54711 14.7521 4.66336L13.9374 8.33556C13.7972 8.96662 13.446 9.53101 12.9418 9.93549C12.4375 10.34 11.8104 10.5604 11.1639 10.5602H6.67934C5.97022 10.5603 5.28673 10.2951 4.76321 9.81677C4.2397 9.33845 3.91402 8.68162 3.8502 7.97538L3.54229 4.56223ZM4.7069 4.83151L4.98186 7.87312C5.02017 8.29706 5.21573 8.69132 5.53008 8.97834C5.84443 9.26535 6.25481 9.42435 6.68048 9.42404H11.1651C11.5528 9.42394 11.929 9.29161 12.2314 9.04889C12.5338 8.80617 12.7444 8.46757 12.8285 8.089L13.5522 4.83151H4.7069Z" fill="#333333"/>
<path fill-rule="evenodd" clip-rule="evenodd" d="M1.19141 1.78685C1.19141 1.63618 1.25126 1.49168 1.3578 1.38514C1.46434 1.2786 1.60884 1.21875 1.75951 1.21875H3.7524C3.89137 1.21889 4.02546 1.26996 4.12931 1.36229C4.23316 1.45463 4.29956 1.58182 4.31596 1.71981L4.77271 5.58403C4.79034 5.7338 4.74775 5.88443 4.65432 6.0028C4.56088 6.12117 4.42425 6.19757 4.27449 6.21519C4.12472 6.23282 3.97409 6.19023 3.85572 6.0968C3.73736 6.00336 3.66096 5.86674 3.64333 5.71697L3.24679 2.35381H1.75951C1.60884 2.35381 1.46434 2.29396 1.3578 2.18742C1.25126 2.08088 1.19141 1.93752 1.19141 1.78685ZM6.30431 13.5272C6.45498 13.5272 6.59948 13.4674 6.70602 13.3608C6.81256 13.2543 6.87241 13.1098 6.87241 12.9591C6.87241 12.8084 6.81256 12.6639 6.70602 12.5574C6.59948 12.4509 6.45498 12.391 6.30431 12.391C6.15364 12.391 6.00914 12.4509 5.9026 12.5574C5.79606 12.6639 5.73621 12.8084 5.73621 12.9591C5.73621 13.1098 5.79606 13.2543 5.9026 13.3608C6.00914 13.4674 6.15364 13.5272 6.30431 13.5272ZM6.30431 14.6634C6.52812 14.6634 6.74974 14.6193 6.95652 14.5337C7.16329 14.448 7.35118 14.3225 7.50943 14.1642C7.66769 14.006 7.79323 13.8181 7.87888 13.6113C7.96453 13.4045 8.00861 13.1829 8.00861 12.9591C8.00861 12.7353 7.96453 12.5137 7.87888 12.3069C7.79323 12.1001 7.66769 11.9123 7.50943 11.754C7.35118 11.5957 7.16329 11.4702 6.95652 11.3845C6.74974 11.2989 6.52812 11.2548 6.30431 11.2548C5.8523 11.2548 5.41881 11.4344 5.09919 11.754C4.77957 12.0736 4.60001 12.5071 4.60001 12.9591C4.60001 13.4111 4.77957 13.8446 5.09919 14.1642C5.41881 14.4839 5.8523 14.6634 6.30431 14.6634ZM11.4877 13.5272C11.6383 13.5272 11.7828 13.4674 11.8894 13.3608C11.9959 13.2543 12.0558 13.1098 12.0558 12.9591C12.0558 12.8084 11.9959 12.6639 11.8894 12.5574C11.7828 12.4509 11.6383 12.391 11.4877 12.391C11.337 12.391 11.1925 12.4509 11.086 12.5574C10.9794 12.6639 10.9196 12.8084 10.9196 12.9591C10.9196 13.1098 10.9794 13.2543 11.086 13.3608C11.1925 13.4674 11.337 13.5272 11.4877 13.5272ZM11.4877 14.6634C11.7115 14.6634 11.9331 14.6193 12.1399 14.5337C12.3466 14.448 12.5345 14.3225 12.6928 14.1642C12.851 14.006 12.9766 13.8181 13.0622 13.6113C13.1479 13.4045 13.192 13.1829 13.192 12.9591C13.192 12.7353 13.1479 12.5137 13.0622 12.3069C12.9766 12.1001 12.851 11.9123 12.6928 11.754C12.5345 11.5957 12.3466 11.4702 12.1399 11.3845C11.9331 11.2989 11.7115 11.2548 11.4877 11.2548C11.0357 11.2548 10.6022 11.4344 10.2825 11.754C9.96292 12.0736 9.78336 12.5071 9.78336 12.9591C9.78336 13.4111 9.96292 13.8446 10.2825 14.1642C10.6022 14.4839 11.0357 14.6634 11.4877 14.6634Z" fill="#333333"/>
</svg>
