<svg width="40" height="35" viewBox="0 0 40 35" fill="none" xmlns="http://www.w3.org/2000/svg">
<path d="M35.3125 0H10.9375C8.35281 0 6.25 2.10281 6.25 4.6875C6.25 5.55047 6.94953 6.25 7.8125 6.25C8.67547 6.25 9.375 5.55047 9.375 4.6875C9.375 3.82594 10.0759 3.125 10.9375 3.125H35.3125C36.1741 3.125 36.875 3.82594 36.875 4.6875V20.3125C36.875 21.1741 36.1741 21.875 35.3125 21.875H33.75V14.0625C33.75 11.4778 31.6472 9.375 29.0625 9.375H4.6875C2.10281 9.375 0 11.4778 0 14.0625V29.6875C0 32.2722 2.10281 34.375 4.6875 34.375H29.0625C31.6472 34.375 33.75 32.2722 33.75 29.6875V25H35.3125C37.8972 25 40 22.8972 40 20.3125V4.6875C40 2.10281 37.8972 0 35.3125 0ZM30.625 29.6875C30.625 30.5491 29.9241 31.25 29.0625 31.25H4.6875C3.82594 31.25 3.125 30.5491 3.125 29.6875V14.0625C3.125 13.2009 3.82594 12.5 4.6875 12.5H29.0625C29.9241 12.5 30.625 13.2009 30.625 14.0625V15.625H7.8125C6.94953 15.625 6.25 16.3245 6.25 17.1875C6.25 18.0505 6.94953 18.75 7.8125 18.75H30.625V29.6875Z" fill="#62D0B6"/>
<path d="M25.9375 28.125H19.6875C18.8245 28.125 18.125 27.4255 18.125 26.5625C18.125 25.6995 18.8245 25 19.6875 25H25.9375C26.8005 25 27.5 25.6995 27.5 26.5625C27.5 27.4255 26.8005 28.125 25.9375 28.125Z" fill="#62D0B6"/>
</svg>
