<svg width="40" height="40" viewBox="0 0 40 40" fill="none" xmlns="http://www.w3.org/2000/svg">
<path d="M30.21 23.7812C27.4298 23.7812 25.168 26.043 25.168 28.8233C25.168 31.6035 27.4298 33.8653 30.21 33.8653C32.9907 33.8653 35.252 31.6035 35.252 28.8233C35.252 26.043 32.9902 23.7812 30.21 23.7812ZM30.21 31.3443C28.8197 31.3443 27.689 30.2136 27.689 28.8233C27.689 27.433 28.8197 26.3023 30.21 26.3023C31.6003 26.3023 32.731 27.433 32.731 28.8233C32.731 30.2137 31.6003 31.3443 30.21 31.3443Z" fill="#62D0B6"/>
<path d="M12.9832 23.7812C10.203 23.7812 7.94116 26.043 7.94116 28.8233C7.94116 31.6035 10.203 33.8653 12.9832 33.8653C15.7634 33.8653 18.0252 31.6035 18.0252 28.8233C18.0252 26.043 15.7634 23.7812 12.9832 23.7812ZM12.9832 31.3443C11.5929 31.3443 10.4622 30.2136 10.4622 28.8233C10.4622 27.433 11.5929 26.3023 12.9832 26.3023C14.3731 26.3023 15.5042 27.433 15.5042 28.8233C15.5042 30.2137 14.3735 31.3443 12.9832 31.3443Z" fill="#62D0B6"/>
<path d="M33.605 9.35039C33.3907 8.92477 32.955 8.65625 32.4785 8.65625H25.8398V11.1773H31.7012L35.1335 18.0041L37.3865 16.8713L33.605 9.35039Z" fill="#62D0B6"/>
<path d="M26.4287 27.6055H16.8909V30.1265H26.4287V27.6055Z" fill="#62D0B6"/>
<path d="M9.20047 27.6055H4.83078C4.13453 27.6055 3.57031 28.1698 3.57031 28.8659C3.57031 29.5622 4.13461 30.1264 4.83078 30.1264H9.20055C9.8968 30.1264 10.461 29.5621 10.461 28.8659C10.461 28.1697 9.89672 27.6055 9.20047 27.6055Z" fill="#62D0B6"/>
<path d="M39.7341 19.8975L37.2548 16.7042C37.0166 16.3966 36.6489 16.2168 36.2594 16.2168H27.0997V7.39328C27.0997 6.69703 26.5354 6.13281 25.8392 6.13281H4.83078C4.13453 6.13281 3.57031 6.69711 3.57031 7.39328C3.57031 8.08945 4.13461 8.65375 4.83078 8.65375H24.5787V17.4773C24.5787 18.1735 25.143 18.7377 25.8391 18.7377H35.6421L37.4778 21.1024V27.6033H33.9904C33.2941 27.6033 32.7299 28.1676 32.7299 28.8638C32.7299 29.56 33.2942 30.1242 33.9904 30.1242H38.7383C39.4345 30.1242 39.9987 29.5599 39.9988 28.8638V20.6706C39.9988 20.3908 39.9055 20.1185 39.7341 19.8975Z" fill="#62D0B6"/>
<path d="M9.11767 21.2188H3.31931C2.62306 21.2188 2.05884 21.783 2.05884 22.4792C2.05884 23.1755 2.62313 23.7397 3.31931 23.7397H9.11759C9.81384 23.7397 10.3781 23.1754 10.3781 22.4792C10.3781 21.783 9.81384 21.2188 9.11767 21.2188Z" fill="#62D0B6"/>
<path d="M12.0168 16.2617H1.26047C0.564297 16.2617 0 16.826 0 17.5223C0 18.2185 0.564297 18.7827 1.26047 18.7827H12.0168C12.713 18.7827 13.2773 18.2184 13.2773 17.5223C13.2773 16.8261 12.713 16.2617 12.0168 16.2617Z" fill="#62D0B6"/>
<path d="M14.0756 11.3008H3.31931C2.62306 11.3008 2.05884 11.8651 2.05884 12.5613C2.05884 13.2575 2.62313 13.8217 3.31931 13.8217H14.0756C14.7719 13.8217 15.3361 13.2574 15.3361 12.5613C15.3362 11.8651 14.7719 11.3008 14.0756 11.3008Z" fill="#62D0B6"/>
</svg>
